<svg width="64" height="65" viewBox="0 0 64 65" fill="none" xmlns="http://www.w3.org/2000/svg">
<path d="M56.7145 31.6351H48.5894C48.4659 25.8737 47.1055 20.3964 44.7122 16.0132C46.0011 15.5518 47.2305 15.0175 48.3796 14.4162C48.8023 14.1944 48.966 13.672 48.7442 13.2493C48.5224 12.8266 48 12.6629 47.5773 12.8846C46.4045 13.4993 45.1409 14.0351 43.8117 14.4951C40.7383 9.69654 36.6423 7.01301 32.2218 6.92519C32.1489 6.92371 32.0729 6.92371 32 6.92371H31.9985C31.997 6.92371 31.997 6.92371 31.9956 6.92371H31.9941C31.9926 6.92371 31.9926 6.92371 31.9911 6.92371C27.6108 6.92668 23.5252 9.64296 20.4845 14.5739C20.48 14.5799 20.477 14.5858 20.4726 14.5933C19.0393 14.1125 17.6789 13.544 16.4212 12.8861C15.997 12.6644 15.4746 12.8281 15.2543 13.2523C15.0326 13.675 15.1963 14.1989 15.6205 14.4191C16.8633 15.0696 18.2013 15.6366 19.6048 16.1233C17.3172 20.4872 16.0208 25.9019 15.9018 31.6381H7.28558C6.80781 31.6381 6.42084 32.0251 6.42084 32.5029C6.42084 32.9806 6.80781 33.3676 7.28558 33.3676H15.9048C16.0238 39.1023 17.3187 44.514 19.6048 48.8779C18.1954 49.3691 16.8588 49.9406 15.6234 50.5881C15.2008 50.8098 15.037 51.3323 15.2573 51.755C15.4121 52.0496 15.7128 52.2193 16.0238 52.2193C16.1593 52.2193 16.2962 52.1881 16.4242 52.1211C17.6714 51.4677 19.0318 50.8932 20.4726 50.408C20.477 50.4154 20.483 50.4244 20.4875 50.4318C23.5267 55.3598 27.6108 58.0761 31.9881 58.0805C31.9896 58.0805 31.9911 58.0805 31.9926 58.0805C31.9956 58.0805 31.9985 58.0805 32.0015 58.0805H32.003C32.0759 58.0805 32.1503 58.0805 32.2218 58.079C36.8253 57.9868 41.0731 55.0859 44.1824 49.9138C44.1838 49.9109 44.1853 49.9079 44.1868 49.9064C44.1957 49.8915 44.2032 49.8766 44.2106 49.8632C44.2166 49.8513 44.2225 49.8394 44.2285 49.8275C44.233 49.8156 44.2374 49.8052 44.2434 49.7933C44.2493 49.7769 44.2568 49.7605 44.2627 49.7442C44.2642 49.7412 44.2642 49.7397 44.2657 49.7367C44.2672 49.7293 44.2687 49.7233 44.2717 49.7159C44.2776 49.698 44.2821 49.6787 44.2865 49.6608C44.2895 49.6504 44.291 49.64 44.2925 49.6296C44.2955 49.6132 44.2984 49.5953 44.3014 49.579C44.3029 49.5656 44.3044 49.5536 44.3044 49.5403C44.3059 49.5254 44.3074 49.5105 44.3074 49.4971C44.3074 49.4822 44.3074 49.4673 44.3074 49.4524C44.3074 49.439 44.3074 49.4271 44.3059 49.4137C44.3044 49.3989 44.3029 49.3825 44.3014 49.3676C44.2999 49.3557 44.2984 49.3438 44.297 49.3319C44.294 49.317 44.291 49.3021 44.288 49.2872C44.285 49.2753 44.2821 49.2619 44.2791 49.25C44.2746 49.2366 44.2717 49.2217 44.2672 49.2084C44.2627 49.195 44.2583 49.1816 44.2538 49.1682C44.2493 49.1563 44.2449 49.1443 44.2389 49.1324C44.233 49.1176 44.227 49.1042 44.2196 49.0908C44.2151 49.0803 44.2091 49.0699 44.2032 49.0595C44.1957 49.0446 44.1868 49.0312 44.1779 49.0163C44.1719 49.0074 44.166 48.9985 44.16 48.9881C44.1511 48.9747 44.1407 48.9598 44.1303 48.9464C44.1228 48.9375 44.1154 48.9285 44.1079 48.9196C44.0975 48.9077 44.0871 48.8958 44.0767 48.8839C44.0677 48.8735 44.0588 48.8645 44.0484 48.8556C44.038 48.8452 44.0276 48.8363 44.0171 48.8258C44.0052 48.8154 43.9933 48.805 43.9799 48.7961C43.971 48.7886 43.9606 48.7812 43.9517 48.7737C43.9368 48.7633 43.9219 48.7544 43.907 48.744C43.8996 48.7395 43.8936 48.735 43.8862 48.7306C43.8832 48.7291 43.8802 48.7276 43.8772 48.7261C43.8624 48.7172 43.849 48.7097 43.8341 48.7023C43.8222 48.6963 43.8103 48.6904 43.7984 48.6844C43.7864 48.6785 43.7745 48.674 43.7626 48.6696C43.7463 48.6636 43.7314 48.6562 43.715 48.6517C43.712 48.6502 43.709 48.6487 43.7061 48.6487C40.3409 47.5622 36.7197 46.9728 32.9258 46.8895C32.9377 43.4052 32.9451 39.0026 32.9466 33.3691H46.8584C46.7944 36.267 46.4075 39.08 45.702 41.7412C45.5799 42.2026 45.8553 42.6759 46.3167 42.7979C46.3911 42.8173 46.4655 42.8262 46.5384 42.8262C46.921 42.8262 47.2722 42.5702 47.3734 42.1817C48.1161 39.3762 48.5224 36.4158 48.5864 33.3676H56.7115C57.1892 33.3676 57.5762 32.9806 57.5762 32.5029C57.5762 32.0251 57.1922 31.6351 56.7145 31.6351ZM42.0971 15.0324C39.2305 15.845 36.1094 16.3094 32.9124 16.3838C32.9049 14.9311 32.8975 13.5752 32.8886 12.1672C32.8826 11.0718 32.8752 9.93468 32.8677 8.69189C36.3193 9.01338 39.5476 11.2325 42.0971 15.0324ZM31.1397 8.69487C31.1472 9.94212 31.1531 11.0807 31.1606 12.1777C31.1695 13.5827 31.1769 14.9371 31.1844 16.3853C28.0618 16.3198 25.0091 15.8822 22.1916 15.1098C24.6638 11.2698 27.8043 9.02529 31.1397 8.69487ZM21.2852 16.6547C24.3781 17.5462 27.7492 18.0478 31.1918 18.1163C31.2067 21.4279 31.2156 25.445 31.2171 31.6351H17.6342C17.7533 26.0552 19.0348 20.8177 21.2852 16.6547ZM17.6342 33.3646H31.2171C31.2156 38.9981 31.2082 43.3992 31.1963 46.882C27.7314 46.9475 24.4034 47.4372 21.2793 48.3406C19.0303 44.1777 17.7533 38.9416 17.6342 33.3646ZM22.1872 49.8841C25.0285 49.1027 28.0484 48.6755 31.1889 48.613C31.1755 52.0616 31.1576 54.4921 31.1412 56.3049C27.8043 55.976 24.6623 53.7285 22.1872 49.8841ZM42.0986 49.9659C39.552 53.7657 36.3237 55.9849 32.8722 56.3079C32.8886 54.4921 32.9049 52.063 32.9198 48.616C36.096 48.6904 39.232 49.1518 42.0986 49.9659ZM32.9466 31.6351C32.9451 25.445 32.9362 21.4264 32.9213 18.1148C36.4458 18.0359 39.8899 17.5001 43.0363 16.5594C45.3909 20.7373 46.7334 26.0344 46.8584 31.6351H32.9466Z" fill="#5EA6F8"/>
<path d="M56.4048 47.3018L53.9207 45.6884C56.317 41.7144 57.5791 37.1749 57.5791 32.4999C57.5791 25.704 54.9432 19.3055 50.1551 14.4817C45.37 9.66088 38.9968 6.97586 32.2217 6.92228C32.0774 6.9193 31.9151 6.9193 31.7946 6.92228C25.0046 6.97586 18.6299 9.65939 13.8448 14.4802C9.05823 19.304 6.42084 25.7025 6.42084 32.4999C6.42084 39.2973 9.05823 45.6973 13.8448 50.5196C18.6299 55.3405 25.0046 58.024 31.7827 58.0776C31.8541 58.0791 31.927 58.0791 32 58.0791C32.0729 58.0791 32.1473 58.0791 32.2098 58.0776C36.5603 58.0434 40.8082 56.9048 44.5678 54.7794L45.0054 56.101C45.117 56.4404 45.4206 56.6785 45.7763 56.7098C45.8016 56.7113 45.8284 56.7128 45.8537 56.7128C46.1812 56.7128 46.4848 56.5327 46.6411 56.2409L49.1728 51.5154L53.1602 56.7068C53.3804 56.9926 53.7108 57.1429 54.0457 57.1429C54.2824 57.1429 54.522 57.067 54.7244 56.9122C55.2126 56.5371 55.3049 55.8361 54.9298 55.3464L50.9484 50.1624L56.128 48.9182C56.4747 48.8348 56.7397 48.552 56.7992 48.2008C56.8587 47.851 56.704 47.4968 56.4048 47.3018ZM32.1845 56.3481C32.1235 56.3496 32.061 56.3496 32 56.3496C31.9404 56.3496 31.8824 56.3496 31.811 56.3481C18.7639 56.2469 8.15181 45.5485 8.15181 32.4999C8.15181 19.4514 18.7639 8.75297 31.8229 8.65176C31.8824 8.65028 31.9404 8.65028 32 8.65028C32.061 8.65028 32.122 8.65028 32.195 8.65176C45.2375 8.75595 55.8482 19.4544 55.8482 32.4999C55.8482 36.8385 54.6813 41.0536 52.4681 44.7463L40.2991 36.8415C39.9806 36.6346 39.5669 36.651 39.2677 36.8832C38.967 37.1154 38.8465 37.5113 38.9656 37.8715L44.0126 53.1064C40.4361 55.1946 36.3669 56.3154 32.1845 56.3481ZM48.9362 48.811C48.6891 48.8705 48.4777 49.0328 48.3572 49.2575L46.0472 53.5678L41.4616 39.726L53.69 47.6679L48.9362 48.811Z" fill="#121331"/>
</svg>
