<svg width="64" height="65" viewBox="0 0 64 65" fill="none" xmlns="http://www.w3.org/2000/svg">
<path d="M53.6171 11.816H10.3829C8.66977 11.816 7.27516 13.2106 7.27516 14.9238V24.8319C7.27516 26.545 8.66977 27.9396 10.3829 27.9396H53.6156C55.3287 27.9396 56.7233 26.545 56.7233 24.8319V14.9252C56.7248 13.2106 55.3302 11.816 53.6171 11.816ZM54.9388 24.8333C54.9388 25.5626 54.3464 26.155 53.6171 26.155H10.3829C9.65358 26.155 9.06121 25.5626 9.06121 24.8333V14.9252C9.06121 14.1959 9.65358 13.6036 10.3829 13.6036H53.6156C54.3449 13.6036 54.9373 14.1959 54.9373 14.9252V24.8333H54.9388Z" fill="#121331"/>
<path d="M25.6937 42.219H12.3698C10.6567 42.219 9.26213 43.6136 9.26213 45.3267V50.0746C9.26213 51.7877 10.6567 53.1824 12.3698 53.1824H25.6937C27.4068 53.1824 28.8014 51.7877 28.8014 50.0746V45.3267C28.8014 43.6136 27.4068 42.219 25.6937 42.219ZM27.0154 50.0746C27.0154 50.8039 26.423 51.3963 25.6937 51.3963H12.3698C11.6405 51.3963 11.0482 50.8039 11.0482 50.0746V45.3267C11.0482 44.5974 11.6405 44.005 12.3698 44.005H25.6937C26.423 44.005 27.0154 44.5974 27.0154 45.3267V50.0746Z" fill="#121331"/>
<path d="M51.6301 42.219H38.3791C36.666 42.219 35.2714 43.6136 35.2714 45.3267V50.0746C35.2714 51.7877 36.666 53.1824 38.3791 53.1824H51.6301C53.3432 53.1824 54.7378 51.7877 54.7378 50.0746V45.3267C54.7393 43.6136 53.3447 42.219 51.6301 42.219ZM52.9533 50.0746C52.9533 50.8039 52.3609 51.3963 51.6316 51.3963H38.3806C37.6513 51.3963 37.0589 50.8039 37.0589 50.0746V45.3267C37.0589 44.5974 37.6513 44.005 38.3806 44.005H51.6316C52.3609 44.005 52.9533 44.5974 52.9533 45.3267V50.0746Z" fill="#121331"/>
<path d="M15.5044 16.3868C13.5784 16.3868 12.0126 17.9526 12.0126 19.8786C12.0126 21.8045 13.5784 23.3703 15.5044 23.3703C17.4303 23.3703 18.9961 21.8045 18.9961 19.8786C18.9961 17.9526 17.4303 16.3868 15.5044 16.3868ZM15.5044 21.5842C14.5637 21.5842 13.7987 20.8192 13.7987 19.8786C13.7987 18.9379 14.5637 18.1729 15.5044 18.1729C16.445 18.1729 17.2101 18.9379 17.2101 19.8786C17.2101 20.8192 16.445 21.5842 15.5044 21.5842Z" fill="#5EA6F8"/>
<path d="M50.5853 18.6358H50.6046C51.0973 18.6358 51.4976 18.2354 51.4976 17.7427C51.4976 17.2501 51.0973 16.8497 50.6046 16.8497H50.5853C50.0926 16.8497 49.6923 17.2501 49.6923 17.7427C49.6923 18.2354 50.0926 18.6358 50.5853 18.6358Z" fill="#5EA6F8"/>
<path d="M34.3724 16.8497H34.3323C33.8396 16.8497 33.4392 17.2501 33.4392 17.7427C33.4392 18.2354 33.8396 18.6358 34.3323 18.6358H34.3724C34.8651 18.6358 35.2655 18.2354 35.2655 17.7427C35.2655 17.2501 34.8666 16.8497 34.3724 16.8497Z" fill="#5EA6F8"/>
<path d="M38.3955 18.6358H38.4357C38.9284 18.6358 39.3288 18.2354 39.3288 17.7427C39.3288 17.2501 38.9284 16.8497 38.4357 16.8497H38.3955C37.9029 16.8497 37.5025 17.2501 37.5025 17.7427C37.5025 18.2354 37.9029 18.6358 38.3955 18.6358Z" fill="#5EA6F8"/>
<path d="M46.5622 16.8497H46.5221C46.0294 16.8497 45.629 17.2501 45.629 17.7427C45.629 18.2354 46.0294 18.6358 46.5221 18.6358H46.5622C47.0549 18.6358 47.4553 18.2354 47.4553 17.7427C47.4553 17.2501 47.0564 16.8497 46.5622 16.8497Z" fill="#5EA6F8"/>
<path d="M42.499 16.8497H42.4588C41.9662 16.8497 41.5658 17.2501 41.5658 17.7427C41.5658 18.2354 41.9662 18.6358 42.4588 18.6358H42.499C42.9917 18.6358 43.392 18.2354 43.392 17.7427C43.392 17.2501 42.9932 16.8497 42.499 16.8497Z" fill="#5EA6F8"/>
<path d="M30.3092 16.8497H30.2899C29.7972 16.8497 29.3969 17.2501 29.3969 17.7427C29.3969 18.2354 29.7972 18.6358 30.2899 18.6358H30.3092C30.8019 18.6358 31.2022 18.2354 31.2022 17.7427C31.2022 17.2501 30.8034 16.8497 30.3092 16.8497Z" fill="#5EA6F8"/>
<path d="M50.6046 21.1213H50.5853C50.0926 21.1213 49.6923 21.5217 49.6923 22.0144C49.6923 22.507 50.0926 22.9074 50.5853 22.9074H50.6046C51.0973 22.9074 51.4976 22.507 51.4976 22.0144C51.4976 21.5217 51.0973 21.1213 50.6046 21.1213Z" fill="#5EA6F8"/>
<path d="M38.3955 22.9074H38.4357C38.9284 22.9074 39.3288 22.507 39.3288 22.0144C39.3288 21.5217 38.9284 21.1213 38.4357 21.1213H38.3955C37.9029 21.1213 37.5025 21.5217 37.5025 22.0144C37.5025 22.507 37.9029 22.9074 38.3955 22.9074Z" fill="#5EA6F8"/>
<path d="M34.3724 21.1213H34.3323C33.8396 21.1213 33.4392 21.5217 33.4392 22.0144C33.4392 22.507 33.8396 22.9074 34.3323 22.9074H34.3724C34.8651 22.9074 35.2655 22.507 35.2655 22.0144C35.2655 21.5217 34.8666 21.1213 34.3724 21.1213Z" fill="#5EA6F8"/>
<path d="M42.499 21.1213H42.4588C41.9662 21.1213 41.5658 21.5217 41.5658 22.0144C41.5658 22.507 41.9662 22.9074 42.4588 22.9074H42.499C42.9917 22.9074 43.392 22.507 43.392 22.0144C43.392 21.5217 42.9932 21.1213 42.499 21.1213Z" fill="#5EA6F8"/>
<path d="M46.5622 21.1213H46.5221C46.0294 21.1213 45.629 21.5217 45.629 22.0144C45.629 22.507 46.0294 22.9074 46.5221 22.9074H46.5622C47.0549 22.9074 47.4553 22.507 47.4553 22.0144C47.4553 21.5217 47.0564 21.1213 46.5622 21.1213Z" fill="#5EA6F8"/>
<path d="M30.3092 21.1213H30.2899C29.7972 21.1213 29.3969 21.5217 29.3969 22.0144C29.3969 22.507 29.7972 22.9074 30.2899 22.9074H30.3092C30.8019 22.9074 31.2022 22.507 31.2022 22.0144C31.2022 21.5217 30.8034 21.1213 30.3092 21.1213Z" fill="#5EA6F8"/>
<path d="M26.9917 30.6008C26.5556 30.3701 26.0153 30.5353 25.7846 30.9699L21.562 38.9133C21.3299 39.3494 21.4966 39.8897 21.9312 40.1204C22.0651 40.1918 22.208 40.2246 22.3494 40.2246C22.6694 40.2246 22.979 40.0519 23.1382 39.7498L27.3608 31.8064C27.5915 31.3717 27.4263 30.8315 26.9917 30.6008Z" fill="#5EA6F8"/>
<path d="M38.2169 30.9699C37.9847 30.5353 37.4445 30.3686 37.0098 30.6008C36.5737 30.833 36.4085 31.3733 36.6407 31.8079L40.8632 39.7513C41.024 40.0535 41.3336 40.2261 41.6521 40.2261C41.7935 40.2261 41.9364 40.1919 42.0703 40.1219C42.5064 39.8897 42.6716 39.3495 42.4394 38.9149L38.2169 30.9699Z" fill="#5EA6F8"/>
</svg>
