<svg width="64" height="65" viewBox="0 0 64 65" fill="none" xmlns="http://www.w3.org/2000/svg">
<path d="M33.5405 30.9923H27.0423C26.5497 30.9923 26.1493 30.5919 26.1493 30.0993C26.1493 29.6066 26.5497 29.2063 27.0423 29.2063H33.5405C35.6332 29.2063 37.3359 27.5036 37.3359 25.4109V19.0258C37.3359 18.5331 37.7363 18.1328 38.2289 18.1328C38.7216 18.1328 39.1219 18.5331 39.1219 19.0258V25.4109C39.1219 28.4889 36.6185 30.9923 33.5405 30.9923Z" fill="#5EA6F8"/>
<path d="M17.6387 43.5616C17.1461 43.5616 16.7457 43.1612 16.7457 42.6686V35.2728C16.7457 34.7802 17.1461 34.3798 17.6387 34.3798C18.1314 34.3798 18.5318 34.7802 18.5318 35.2728V42.6686C18.5318 43.1627 18.1314 43.5616 17.6387 43.5616Z" fill="#5EA6F8"/>
<path d="M45.6559 19.9188H30.4194C28.9415 19.9188 27.7404 18.7177 27.7404 17.2397V10.4111C27.7404 8.93311 28.9415 7.73199 30.4194 7.73199H45.6559C47.1339 7.73199 48.335 8.93311 48.335 10.4111V17.2397C48.335 18.7177 47.1324 19.9188 45.6559 19.9188ZM30.4194 9.51804C29.9268 9.51804 29.5264 9.91841 29.5264 10.4111V17.2397C29.5264 17.7324 29.9268 18.1327 30.4194 18.1327H45.6559C46.1486 18.1327 46.549 17.7324 46.549 17.2397V10.4111C46.549 9.91841 46.1486 9.51804 45.6559 9.51804H30.4194Z" fill="#121331"/>
<path d="M25.2562 36.1927H10.0198C8.54181 36.1927 7.3407 34.99 7.3407 33.5136V26.6849C7.3407 25.207 8.54181 24.0059 10.0198 24.0059H25.2562C26.7342 24.0059 27.9353 25.207 27.9353 26.6849V33.5136C27.9353 34.9915 26.7342 36.1927 25.2562 36.1927ZM10.0198 25.7919C9.52711 25.7919 9.12674 26.1923 9.12674 26.6849V33.5136C9.12674 34.0062 9.52711 34.4066 10.0198 34.4066H25.2562C25.7489 34.4066 26.1492 34.0062 26.1492 33.5136V26.6849C26.1492 26.1923 25.7489 25.7919 25.2562 25.7919H10.0198Z" fill="#121331"/>
<path d="M47.5908 39.9865C43.1272 39.9865 39.4449 43.3874 38.9954 47.735H27.0423C26.5497 47.735 26.1493 48.1353 26.1493 48.628C26.1493 49.1206 26.5497 49.521 27.0423 49.521H38.9954C39.4434 53.8671 43.1272 57.2695 47.5908 57.2695C52.3551 57.2695 56.2323 53.3938 56.2323 48.628C56.2323 43.8622 52.3551 39.9865 47.5908 39.9865ZM47.5908 55.482C43.8103 55.482 40.7353 52.407 40.7353 48.6265C40.7353 44.846 43.8103 41.7711 47.5908 41.7711C51.3712 41.7711 54.4462 44.846 54.4462 48.6265C54.4462 52.407 51.3712 55.482 47.5908 55.482Z" fill="#5EA6F8"/>
<path d="M25.2562 53.9638H10.0198C8.54181 53.9638 7.3407 52.7612 7.3407 51.2848V44.4561C7.3407 42.9796 8.54181 41.777 10.0198 41.777H25.2562C26.7342 41.777 27.9353 42.9796 27.9353 44.4561V51.2848C27.9353 52.7612 26.7342 53.9638 25.2562 53.9638ZM10.0198 43.5616C9.52711 43.5616 9.12674 43.962 9.12674 44.4546V51.2833C9.12674 51.7759 9.52711 52.1763 10.0198 52.1763H25.2562C25.7489 52.1763 26.1492 51.7759 26.1492 51.2833V44.4546C26.1492 43.962 25.7489 43.5616 25.2562 43.5616H10.0198Z" fill="#121331"/>
<path d="M22.9002 30.9923H16.0849C15.5923 30.9923 15.1919 30.5919 15.1919 30.0993C15.1919 29.6066 15.5923 29.2062 16.0849 29.2062H22.9002C23.3928 29.2062 23.7932 29.6066 23.7932 30.0993C23.7932 30.5919 23.3928 30.9923 22.9002 30.9923Z" fill="#121331"/>
<path d="M12.3877 30.9923C11.8951 30.9923 11.4888 30.5919 11.4888 30.0993C11.4888 29.6066 11.8832 29.2062 12.3758 29.2062H12.3877C12.8804 29.2062 13.2808 29.6066 13.2808 30.0993C13.2808 30.5919 12.8804 30.9923 12.3877 30.9923Z" fill="#121331"/>
<path d="M22.9002 48.7635H16.0849C15.5923 48.7635 15.1919 48.3631 15.1919 47.8704C15.1919 47.3778 15.5923 46.9774 16.0849 46.9774H22.9002C23.3928 46.9774 23.7932 47.3778 23.7932 47.8704C23.7932 48.3631 23.3928 48.7635 22.9002 48.7635Z" fill="#121331"/>
<path d="M12.3877 48.7635C11.8951 48.7635 11.4888 48.3631 11.4888 47.8704C11.4888 47.3778 11.8832 46.9774 12.3758 46.9774H12.3877C12.8804 46.9774 13.2808 47.3778 13.2808 47.8704C13.2808 48.3631 12.8804 48.7635 12.3877 48.7635Z" fill="#121331"/>
<path d="M43.2997 14.7184H36.4845C35.9918 14.7184 35.5914 14.318 35.5914 13.8254C35.5914 13.3327 35.9918 12.9324 36.4845 12.9324H43.2997C43.7924 12.9324 44.1927 13.3327 44.1927 13.8254C44.1927 14.318 43.7924 14.7184 43.2997 14.7184Z" fill="#121331"/>
<path d="M32.7874 14.7184C32.2947 14.7184 31.8884 14.318 31.8884 13.8254C31.8884 13.3327 32.2828 12.9324 32.7755 12.9324H32.7874C33.28 12.9324 33.6804 13.3327 33.6804 13.8254C33.6804 14.318 33.28 14.7184 32.7874 14.7184Z" fill="#121331"/>
<path d="M47.3466 51.3845C47.1174 51.3845 46.8897 51.2967 46.7155 51.1225L43.907 48.314C43.5587 47.9657 43.5587 47.4001 43.907 47.0503C44.2552 46.7021 44.8208 46.7021 45.1706 47.0503L47.3481 49.2278L55.1368 41.4392C55.4851 41.0909 56.0506 41.0909 56.4004 41.4392C56.7487 41.7875 56.7487 42.353 56.4004 42.7013L47.9807 51.121C47.8035 51.2967 47.5743 51.3845 47.3466 51.3845Z" fill="#121331"/>
</svg>
