<svg width="64" height="65" viewBox="0 0 64 65" fill="none" xmlns="http://www.w3.org/2000/svg">
<path d="M52.4964 7.77515H11.5036C9.17282 7.77515 7.27515 9.67133 7.27515 12.0036V52.9964C7.27515 55.3271 9.17133 57.2248 11.5036 57.2248H52.4964C54.8271 57.2248 56.7248 55.3286 56.7248 52.9964V12.0036C56.7248 9.67133 54.8286 7.77515 52.4964 7.77515ZM11.5036 9.56119H52.4964C53.8433 9.56119 54.9388 10.6566 54.9388 12.0036V15.4224H9.06119V12.0036C9.06119 10.6566 10.1566 9.56119 11.5036 9.56119ZM52.4964 55.4388H11.5036C10.1566 55.4388 9.06119 54.3433 9.06119 52.9964V17.207H54.9388V52.9964C54.9388 54.3433 53.8433 55.4388 52.4964 55.4388Z" fill="#121331"/>
<path d="M21.2837 13.608H21.2628C20.6466 13.608 20.1465 13.108 20.1465 12.4918C20.1465 11.8756 20.6466 11.3755 21.2628 11.3755H21.2837C21.8998 11.3755 22.3999 11.8756 22.3999 12.4918C22.3999 13.108 21.8998 13.608 21.2837 13.608Z" fill="#5EA6F8"/>
<path d="M12.9041 13.608H12.8833C12.2671 13.608 11.767 13.108 11.767 12.4918C11.767 11.8756 12.2671 11.3755 12.8833 11.3755H12.9041C13.5203 11.3755 14.0204 11.8756 14.0204 12.4918C14.0204 13.108 13.5218 13.608 12.9041 13.608Z" fill="#5EA6F8"/>
<path d="M17.0939 13.608H17.0731C16.4569 13.608 15.9568 13.108 15.9568 12.4918C15.9568 11.8756 16.4569 11.3755 17.0731 11.3755H17.0939C17.7101 11.3755 18.2102 11.8756 18.2102 12.4918C18.2102 13.108 17.7101 13.608 17.0939 13.608Z" fill="#5EA6F8"/>
<path d="M47.3317 23.9121H16.6682C16.1756 23.9121 15.7752 23.5117 15.7752 23.0191C15.7752 22.5264 16.1756 22.126 16.6682 22.126H47.3302C47.8228 22.126 48.2232 22.5264 48.2232 23.0191C48.2232 23.5117 47.8243 23.9121 47.3317 23.9121Z" fill="#121331"/>
<path d="M47.3317 29.9266H16.6682C16.1756 29.9266 15.7752 29.5262 15.7752 29.0336C15.7752 28.5409 16.1756 28.1406 16.6682 28.1406H47.3302C47.8228 28.1406 48.2232 28.5409 48.2232 29.0336C48.2232 29.5262 47.8243 29.9266 47.3317 29.9266Z" fill="#121331"/>
<path d="M32.4465 35.9426H16.6682C16.1756 35.9426 15.7752 35.5422 15.7752 35.0496C15.7752 34.5569 16.1756 34.1566 16.6682 34.1566H32.4465C32.9391 34.1566 33.3395 34.5569 33.3395 35.0496C33.3395 35.5422 32.9406 35.9426 32.4465 35.9426Z" fill="#121331"/>
<path d="M47.3317 35.9426H38.9581C38.4654 35.9426 38.0651 35.5422 38.0651 35.0496C38.0651 34.5569 38.4654 34.1566 38.9581 34.1566H47.3317C47.8243 34.1566 48.2247 34.5569 48.2247 35.0496C48.2247 35.5422 47.8243 35.9426 47.3317 35.9426Z" fill="#121331"/>
<path d="M45.8239 52.3593H18.176C16.698 52.3593 15.4969 51.1567 15.4969 49.6803V42.4081C15.4969 40.9316 16.698 39.729 18.176 39.729H45.8225C47.3004 39.729 48.5015 40.9316 48.5015 42.4081V49.6803C48.503 51.1582 47.3004 52.3593 45.8239 52.3593ZM18.176 41.5165C17.6833 41.5165 17.2829 41.9169 17.2829 42.4096V49.6817C17.2829 50.1744 17.6833 50.5748 18.176 50.5748H45.8225C46.3151 50.5748 46.7155 50.1744 46.7155 49.6817V42.4096C46.7155 41.9169 46.3151 41.5165 45.8225 41.5165H18.176Z" fill="#121331"/>
<path d="M31.5371 48.238L31.0177 47.0176C31.0162 47.0146 31.0147 47.0101 31.0132 47.0071L29.4147 43.2505C29.2763 42.9245 28.9577 42.7117 28.6035 42.7072C28.2537 42.7087 27.9263 42.9081 27.7789 43.2311L25.5107 48.2187C25.3068 48.6682 25.5047 49.1965 25.9542 49.4019C26.4037 49.6058 26.9321 49.4079 27.1375 48.9584L27.4575 48.2544H29.6022L29.8939 48.9376C30.0383 49.2769 30.3687 49.4808 30.7155 49.4808C30.8316 49.4808 30.9507 49.457 31.0653 49.4094C31.5192 49.2159 31.7306 48.692 31.5371 48.238ZM28.2701 46.4669L28.5663 45.8164L28.8431 46.4669H28.2701Z" fill="#5EA6F8"/>
<path d="M35.1806 49.4808H33.8292C33.3365 49.4808 32.9362 49.0804 32.9362 48.5878V43.6002C32.9362 43.1076 33.3365 42.7072 33.8292 42.7072H35.1806C37.0485 42.7072 38.5682 44.2268 38.5682 46.0948C38.5682 47.9627 37.0485 49.4808 35.1806 49.4808ZM34.7222 47.6948H35.1806C36.0632 47.6948 36.7821 46.9759 36.7821 46.0933C36.7821 45.2107 36.0632 44.4918 35.1806 44.4918H34.7222V47.6948Z" fill="#5EA6F8"/>
</svg>
