<svg width="64" height="65" viewBox="0 0 64 65" fill="none" xmlns="http://www.w3.org/2000/svg">
<path d="M42.8502 50.8368C42.359 50.8368 41.9571 50.4349 41.9571 49.9438L41.8678 37.5903H36.8967C36.7181 37.5903 36.5543 37.5456 36.4055 37.4414L26.999 31.2201C26.5822 30.9521 26.4781 30.3866 26.746 29.9847C27.0139 29.568 27.5795 29.4638 27.9813 29.7317L37.1646 35.8042H42.7608C43.252 35.8042 43.6539 36.2061 43.6539 36.6973L43.7581 49.9438C43.7581 50.4349 43.3562 50.8368 42.8502 50.8368C42.865 50.8368 42.865 50.8368 42.8502 50.8368Z" fill="#5EA6F8"/>
<path d="M42.7461 57.2219C42.2549 57.2219 41.853 56.8201 41.853 56.3289V49.914C41.853 49.4229 42.2549 49.021 42.7461 49.021C43.2372 49.021 43.6391 49.4229 43.6391 49.914V56.3289C43.6391 56.8201 43.2372 57.2219 42.7461 57.2219Z" fill="#5EA6F8"/>
<path d="M35.5423 57.2219C35.0512 57.2219 34.6493 56.8201 34.6493 56.3289V49.914C34.6493 49.4229 35.0512 49.021 35.5423 49.021C36.0335 49.021 36.4353 49.4229 36.4353 49.914V56.3289C36.4353 56.8201 36.0335 57.2219 35.5423 57.2219Z" fill="#5EA6F8"/>
<path d="M21.1497 57.2219C20.6586 57.2219 20.2567 56.8201 20.2567 56.3289V49.914C20.2567 49.4229 20.6586 49.021 21.1497 49.021C21.6409 49.021 22.0428 49.4229 22.0428 49.914V56.3289C22.0428 56.8201 21.6409 57.2219 21.1497 57.2219Z" fill="#5EA6F8"/>
<path d="M28.3386 57.2219C27.8474 57.2219 27.4456 56.8201 27.4456 56.3289V49.914C27.4456 49.4229 27.8474 49.021 28.3386 49.021C28.8297 49.021 29.2316 49.4229 29.2316 49.914V56.3289C29.2316 56.8201 28.8446 57.2219 28.3386 57.2219Z" fill="#5EA6F8"/>
<path d="M42.7461 15.9791C42.2549 15.9791 41.853 15.5773 41.853 15.0861V8.67122C41.853 8.18006 42.2549 7.7782 42.7461 7.7782C43.2372 7.7782 43.6391 8.18006 43.6391 8.67122V15.0861C43.6391 15.5773 43.2372 15.9791 42.7461 15.9791Z" fill="#5EA6F8"/>
<path d="M35.5423 15.9791C35.0512 15.9791 34.6493 15.5773 34.6493 15.0861V8.67122C34.6493 8.18006 35.0512 7.7782 35.5423 7.7782C36.0335 7.7782 36.4353 8.18006 36.4353 8.67122V15.0861C36.4353 15.5773 36.0335 15.9791 35.5423 15.9791Z" fill="#5EA6F8"/>
<path d="M21.1497 15.9791C20.6586 15.9791 20.2567 15.5773 20.2567 15.0861V8.67122C20.2567 8.18006 20.6586 7.7782 21.1497 7.7782C21.6409 7.7782 22.0428 8.18006 22.0428 8.67122V15.0861C22.0428 15.5773 21.6409 15.9791 21.1497 15.9791Z" fill="#5EA6F8"/>
<path d="M28.3386 15.9791C27.8474 15.9791 27.4456 15.5773 27.4456 15.0861V8.67122C27.4456 8.18006 27.8474 7.7782 28.3386 7.7782C28.8297 7.7782 29.2316 8.18006 29.2316 8.67122V15.0861C29.2316 15.5773 28.8446 15.9791 28.3386 15.9791Z" fill="#5EA6F8"/>
<path d="M55.9628 44.1988H49.5479C49.0568 44.1988 48.6549 43.7969 48.6549 43.3057C48.6549 42.8146 49.0568 42.4127 49.5479 42.4127H55.9628C56.454 42.4127 56.8558 42.8146 56.8558 43.3057C56.8558 43.7969 56.454 44.1988 55.9628 44.1988Z" fill="#5EA6F8"/>
<path d="M55.9628 36.995H49.5479C49.0568 36.995 48.6549 36.5931 48.6549 36.102C48.6549 35.6108 49.0568 35.209 49.5479 35.209H55.9628C56.454 35.209 56.8558 35.6108 56.8558 36.102C56.8558 36.5931 56.454 36.995 55.9628 36.995Z" fill="#5EA6F8"/>
<path d="M55.9628 22.5876H49.5479C49.0568 22.5876 48.6549 22.1857 48.6549 21.6945C48.6549 21.2034 49.0568 20.8015 49.5479 20.8015H55.9628C56.454 20.8015 56.8558 21.2034 56.8558 21.6945C56.8558 22.1857 56.454 22.5876 55.9628 22.5876Z" fill="#5EA6F8"/>
<path d="M55.9628 29.7913H49.5479C49.0568 29.7913 48.6549 29.3894 48.6549 28.8983C48.6549 28.4071 49.0568 28.0052 49.5479 28.0052H55.9628C56.454 28.0052 56.8558 28.4071 56.8558 28.8983C56.8558 29.3894 56.454 29.7913 55.9628 29.7913Z" fill="#5EA6F8"/>
<path d="M14.4521 44.1988H8.03719C7.54603 44.1988 7.14417 43.7969 7.14417 43.3057C7.14417 42.8146 7.54603 42.4127 8.03719 42.4127H14.4521C14.9432 42.4127 15.3451 42.8146 15.3451 43.3057C15.3451 43.7969 14.9432 44.1988 14.4521 44.1988Z" fill="#5EA6F8"/>
<path d="M14.4521 36.995H8.03719C7.54603 36.995 7.14417 36.5931 7.14417 36.102C7.14417 35.6108 7.54603 35.209 8.03719 35.209H14.4521C14.9432 35.209 15.3451 35.6108 15.3451 36.102C15.3451 36.5931 14.9432 36.995 14.4521 36.995Z" fill="#5EA6F8"/>
<path d="M14.4521 22.5876H8.03719C7.54603 22.5876 7.14417 22.1857 7.14417 21.6945C7.14417 21.2034 7.54603 20.8015 8.03719 20.8015H14.4521C14.9432 20.8015 15.3451 21.2034 15.3451 21.6945C15.3451 22.1857 14.9432 22.5876 14.4521 22.5876Z" fill="#5EA6F8"/>
<path d="M14.4521 29.7913H8.03719C7.54603 29.7913 7.14417 29.3894 7.14417 28.8983C7.14417 28.4071 7.54603 28.0052 8.03719 28.0052H14.4521C14.9432 28.0052 15.3451 28.4071 15.3451 28.8983C15.3451 29.3894 14.9432 29.7913 14.4521 29.7913Z" fill="#5EA6F8"/>
<path d="M45.9013 50.8071H17.9944C15.5981 50.8071 13.6334 48.8573 13.6334 46.4461V18.5392C13.6334 16.1429 15.5832 14.1782 17.9944 14.1782H45.9013C48.2976 14.1782 50.2623 16.128 50.2623 18.5392V46.4461C50.2623 48.8573 48.2976 50.8071 45.9013 50.8071ZM17.9944 15.9792C16.5804 15.9792 15.4195 17.1252 15.4195 18.554V46.461C15.4195 47.875 16.5655 49.0359 17.9944 49.0359H45.9013C47.3153 49.0359 48.4762 47.8899 48.4762 46.461V18.5392C48.4762 17.1252 47.3302 15.9643 45.9013 15.9643H17.9944V15.9792Z" fill="#121331"/>
<path d="M32.2083 43.3056C32.0446 43.3056 31.866 43.261 31.7171 43.1568L22.5339 37.0843H14.5264C14.0353 37.0843 13.6334 36.6824 13.6334 36.1912C13.6334 35.7001 14.0353 35.2982 14.5264 35.2982H22.7869C22.9655 35.2982 23.1292 35.3429 23.2781 35.4471L32.6846 41.6684C33.1013 41.9363 33.2055 42.5019 32.9376 42.9038C32.7739 43.1717 32.4911 43.3056 32.2083 43.3056Z" fill="#121331"/>
<path d="M25.9572 22.647H14.8242C14.333 22.647 13.9312 22.2451 13.9312 21.754C13.9312 21.2628 14.333 20.861 14.8242 20.861H25.9572C26.4484 20.861 26.8502 21.2628 26.8502 21.754C26.8502 22.2451 26.4484 22.647 25.9572 22.647Z" fill="#121331"/>
<path d="M49.0717 29.8656H39.3228C38.8317 29.8656 38.4298 29.4638 38.4298 28.9726C38.4298 28.4815 38.8317 28.0796 39.3228 28.0796H49.0717C49.5628 28.0796 49.9647 28.4815 49.9647 28.9726C49.9647 29.4638 49.5628 29.8656 49.0717 29.8656Z" fill="#121331"/>
<path d="M39.3228 29.8358C38.8317 29.8358 38.4298 29.434 38.4298 28.9428V21.754C38.4298 21.2628 38.8317 20.861 39.3228 20.861C39.814 20.861 40.2159 21.2628 40.2159 21.754V28.9428C40.2159 29.434 39.8289 29.8358 39.3228 29.8358Z" fill="#121331"/>
<path d="M39.3674 23.3912H39.293C38.3851 23.3912 37.6558 22.6619 37.6558 21.754C37.6558 20.8461 38.3851 20.1168 39.293 20.1168H39.3525C40.2604 20.1168 40.9897 20.8461 40.9897 21.754C40.9897 22.6619 40.2604 23.3912 39.3674 23.3912Z" fill="#121331"/>
<path d="M27.6837 31.9493H27.6241C26.7162 31.9493 25.9869 31.22 25.9869 30.3121C25.9869 29.4042 26.7162 28.6749 27.6241 28.6749H27.6837C28.5916 28.6749 29.3209 29.4042 29.3209 30.3121C29.3209 31.22 28.5767 31.9493 27.6837 31.9493Z" fill="#5EA6F8"/>
<path d="M32.1339 44.0498H32.0743C31.1664 44.0498 30.4371 43.3205 30.4371 42.4126C30.4371 41.5047 31.1664 40.7754 32.0743 40.7754H32.1339C33.0418 40.7754 33.7711 41.5047 33.7711 42.4126C33.7711 43.3205 33.0418 44.0498 32.1339 44.0498Z" fill="#121331"/>
<path d="M26.0167 23.3912H25.9572C25.0492 23.3912 24.3199 22.6619 24.3199 21.754C24.3199 20.8461 25.0492 20.1168 25.9572 20.1168H26.0167C26.9246 20.1168 27.6539 20.8461 27.6539 21.754C27.6539 22.6619 26.9246 23.3912 26.0167 23.3912Z" fill="#121331"/>
</svg>
