<svg width="14" height="15" viewBox="0 0 14 15" fill="none" xmlns="http://www.w3.org/2000/svg">
<path fill-rule="evenodd" clip-rule="evenodd" d="M6.82592 0.333313C10.4059 0.333313 13.3179 3.24531 13.3179 6.82531C13.3179 8.51434 12.6697 10.0548 11.609 11.211L13.6962 13.2938C13.8915 13.4891 13.8922 13.8051 13.6969 14.0004C13.5995 14.0991 13.4709 14.1478 13.3429 14.1478C13.2155 14.1478 13.0875 14.0991 12.9895 14.0018L10.8772 11.8953C9.76597 12.7852 8.35704 13.318 6.82592 13.318C3.24592 13.318 0.333252 10.4053 0.333252 6.82531C0.333252 3.24531 3.24592 0.333313 6.82592 0.333313ZM6.82592 1.33331C3.79725 1.33331 1.33325 3.79665 1.33325 6.82531C1.33325 9.85398 3.79725 12.318 6.82592 12.318C9.85392 12.318 12.3179 9.85398 12.3179 6.82531C12.3179 3.79665 9.85392 1.33331 6.82592 1.33331Z" fill="#5EA6F8"/>
</svg>
