<svg width="64" height="65" viewBox="0 0 64 65" fill="none" xmlns="http://www.w3.org/2000/svg">
<path d="M52.4964 7.77515H11.5036C9.17284 7.77515 7.27516 9.67133 7.27516 12.0036V52.9964C7.27516 55.3271 9.17135 57.2248 11.5036 57.2248H52.4964C54.8272 57.2248 56.7248 55.3286 56.7248 52.9964V12.0036C56.7248 9.67133 54.8287 7.77515 52.4964 7.77515ZM54.9388 52.9964C54.9388 54.3433 53.8433 55.4388 52.4964 55.4388H11.5036C10.1567 55.4388 9.06121 54.3433 9.06121 52.9964V17.207H54.9388V52.9964ZM54.9388 15.4209H9.06121V12.0036C9.06121 10.6566 10.1567 9.56119 11.5036 9.56119H52.4964C53.8433 9.56119 54.9388 10.6566 54.9388 12.0036V15.4209Z" fill="black"/>
<path d="M14.1455 24.8259H27.962C28.4547 24.8259 28.8551 24.4255 28.8551 23.9329C28.8551 23.4402 28.4547 23.0399 27.962 23.0399H14.1455C13.6528 23.0399 13.2525 23.4402 13.2525 23.9329C13.2525 24.4255 13.6513 24.8259 14.1455 24.8259Z" fill="black"/>
<path d="M14.1455 30.8301H27.962C28.4547 30.8301 28.8551 30.4297 28.8551 29.937C28.8551 29.4444 28.4547 29.044 27.962 29.044H14.1455C13.6528 29.044 13.2525 29.4444 13.2525 29.937C13.2525 30.4297 13.6513 30.8301 14.1455 30.8301Z" fill="black"/>
<path d="M14.1455 36.8326H27.962C28.4547 36.8326 28.8551 36.4323 28.8551 35.9396C28.8551 35.4469 28.4547 35.0466 27.962 35.0466H14.1455C13.6528 35.0466 13.2525 35.4469 13.2525 35.9396C13.2525 36.4323 13.6513 36.8326 14.1455 36.8326Z" fill="black"/>
<path d="M14.1455 42.8352H21.0545C21.5472 42.8352 21.9475 42.4349 21.9475 41.9422C21.9475 41.4496 21.5472 41.0492 21.0545 41.0492H14.1455C13.6528 41.0492 13.2525 41.4496 13.2525 41.9422C13.2525 42.4349 13.6513 42.8352 14.1455 42.8352Z" fill="black"/>
<path d="M21.2837 11.3755H21.2629C20.6467 11.3755 20.1466 11.8756 20.1466 12.4918C20.1466 13.108 20.6467 13.608 21.2629 13.608H21.2837C21.8999 13.608 22.4 13.108 22.4 12.4918C22.4 11.8756 21.8999 11.3755 21.2837 11.3755Z" fill="black"/>
<path d="M12.9042 11.3755H12.8834C12.2672 11.3755 11.7671 11.8756 11.7671 12.4918C11.7671 13.108 12.2672 13.608 12.8834 13.608H12.9042C13.5204 13.608 14.0205 13.108 14.0205 12.4918C14.0205 11.8756 13.5219 11.3755 12.9042 11.3755Z" fill="black"/>
<path d="M17.094 11.3755H17.0731C16.4569 11.3755 15.9568 11.8756 15.9568 12.4918C15.9568 13.108 16.4569 13.608 17.0731 13.608H17.094C17.7102 13.608 18.2102 13.108 18.2102 12.4918C18.2102 11.8756 17.7102 11.3755 17.094 11.3755Z" fill="black"/>
<path d="M50.7475 23.6605C50.7475 23.6427 50.7461 23.6263 50.7446 23.6084C50.7431 23.595 50.7431 23.5816 50.7416 23.5697C50.7401 23.5549 50.7371 23.5415 50.7356 23.5281C50.7327 23.5132 50.7312 23.4968 50.7267 23.4819C50.7237 23.47 50.7208 23.4596 50.7178 23.4477C50.7133 23.4313 50.7089 23.4135 50.7029 23.3971C50.6999 23.3867 50.6955 23.3762 50.691 23.3658C50.685 23.3495 50.6791 23.3331 50.6716 23.3167C50.6672 23.3048 50.6612 23.2929 50.6553 23.2825C50.6493 23.2691 50.6419 23.2542 50.6344 23.2423C50.627 23.2274 50.6181 23.214 50.6091 23.2006C50.6032 23.1902 50.5972 23.1798 50.5898 23.1709C50.5794 23.156 50.5689 23.1411 50.557 23.1277C50.5511 23.1202 50.5451 23.1113 50.5377 23.1039C50.5258 23.0905 50.5139 23.0771 50.502 23.0637C50.4945 23.0562 50.4871 23.0473 50.4796 23.0399C50.4677 23.028 50.4558 23.0175 50.4439 23.0071C50.4335 22.9982 50.4231 22.9893 50.4127 22.9803C50.4022 22.9714 50.3918 22.964 50.3799 22.9565C50.3665 22.9461 50.3531 22.9372 50.3382 22.9282C50.3338 22.9253 50.3308 22.9238 50.3278 22.9208C50.3219 22.9163 50.3144 22.9134 50.307 22.9089C50.2921 22.9 50.2757 22.891 50.2609 22.8836C50.2504 22.8776 50.2385 22.8732 50.2281 22.8672C50.2132 22.8598 50.1969 22.8538 50.182 22.8479C50.1701 22.8434 50.1567 22.8389 50.1448 22.8345C50.1299 22.83 50.1165 22.8255 50.1016 22.8211C50.0867 22.8166 50.0733 22.8136 50.0584 22.8092C50.045 22.8062 50.0316 22.8032 50.0182 22.8002C50.0019 22.7973 49.9855 22.7943 49.9691 22.7928C49.9572 22.7913 49.9453 22.7898 49.9319 22.7883C49.9141 22.7869 49.8962 22.7854 49.8783 22.7854C49.8709 22.7854 49.8635 22.7839 49.856 22.7839H33.2756C33.2681 22.7839 33.2607 22.7854 33.2517 22.7854C33.2339 22.7854 33.2175 22.7869 33.1997 22.7883C33.1863 22.7898 33.1743 22.7913 33.1624 22.7928C33.1461 22.7943 33.1297 22.7973 33.1148 22.8002C33.1014 22.8032 33.0865 22.8062 33.0731 22.8092C33.0583 22.8122 33.0449 22.8166 33.03 22.8196C33.0151 22.8241 33.0002 22.8285 32.9853 22.833C32.9734 22.8375 32.96 22.8419 32.9481 22.8464C32.9317 22.8523 32.9169 22.8598 32.902 22.8672C32.8916 22.8717 32.8797 22.8776 32.8692 22.8836C32.8529 22.891 32.838 22.9 32.8231 22.9104C32.8171 22.9149 32.8097 22.9178 32.8023 22.9223C32.7978 22.9253 32.7948 22.9268 32.7918 22.9297C32.7784 22.9387 32.7636 22.9491 32.7502 22.958C32.7397 22.9655 32.7278 22.9744 32.7174 22.9818C32.707 22.9908 32.6966 22.9997 32.6862 23.0086C32.6743 23.019 32.6623 23.0295 32.6504 23.0414C32.643 23.0488 32.6356 23.0577 32.6281 23.0652C32.6162 23.0786 32.6028 23.092 32.5924 23.1054C32.5864 23.1128 32.579 23.1217 32.573 23.1292C32.5611 23.1441 32.5507 23.1575 32.5403 23.1723C32.5329 23.1828 32.5269 23.1932 32.521 23.2021C32.512 23.2155 32.5031 23.2289 32.4957 23.2438C32.4882 23.2572 32.4823 23.2706 32.4748 23.284C32.4689 23.2959 32.4629 23.3078 32.4584 23.3182C32.451 23.3346 32.445 23.3509 32.4391 23.3673C32.4346 23.3777 32.4317 23.3882 32.4272 23.3986C32.4212 23.4149 32.4168 23.4328 32.4123 23.4492C32.4093 23.4611 32.4064 23.4715 32.4034 23.4834C32.4004 23.4983 32.3974 23.5147 32.3944 23.5295C32.3915 23.5429 32.39 23.5578 32.3885 23.5712C32.387 23.5846 32.3855 23.598 32.3855 23.6099C32.384 23.6278 32.3825 23.6442 32.3825 23.662C32.3825 23.6665 32.3825 23.6709 32.3825 23.6754V50.1312C32.3825 50.1357 32.3825 50.1402 32.3825 50.1446C32.3825 50.1625 32.384 50.1789 32.3855 50.1967C32.387 50.2101 32.387 50.2235 32.3885 50.2354C32.39 50.2488 32.393 50.2637 32.3944 50.2771C32.3974 50.292 32.3989 50.3083 32.4034 50.3232C32.4064 50.3351 32.4093 50.3455 32.4123 50.356C32.4168 50.3723 32.4212 50.3902 32.4272 50.4066C32.4302 50.417 32.4346 50.4274 32.4391 50.4378C32.445 50.4542 32.451 50.4706 32.4584 50.4869C32.4629 50.4989 32.4689 50.5093 32.4748 50.5212C32.4823 50.5346 32.4882 50.5495 32.4957 50.5628C32.5031 50.5762 32.512 50.5896 32.521 50.6045C32.5269 50.6149 32.5329 50.6254 32.5403 50.6358C32.5507 50.6507 32.5611 50.6656 32.573 50.6789C32.579 50.6879 32.585 50.6953 32.5924 50.7042C32.6043 50.7176 32.6162 50.731 32.6281 50.7444C32.6356 50.7519 32.643 50.7608 32.6519 50.7682C32.6638 50.7787 32.6757 50.7906 32.6877 50.801C32.6981 50.8099 32.7085 50.8189 32.7189 50.8278C32.7293 50.8367 32.7397 50.8442 32.7517 50.8516C32.765 50.862 32.7784 50.8709 32.7933 50.8799C32.7978 50.8828 32.8008 50.8843 32.8037 50.8873C32.8082 50.8903 32.8127 50.8918 32.8171 50.8948C32.8454 50.9126 32.8752 50.9275 32.9064 50.9424C32.9124 50.9454 32.9169 50.9483 32.9228 50.9498C32.957 50.9647 32.9913 50.9766 33.027 50.987C33.0359 50.99 33.0463 50.9915 33.0553 50.9945C33.0821 51.0019 33.1089 51.0064 33.1357 51.0109C33.1476 51.0123 33.1595 51.0153 33.1699 51.0168C33.2011 51.0213 33.2339 51.0228 33.2666 51.0228C33.2696 51.0228 33.2741 51.0228 33.277 51.0228C33.2785 51.0228 33.2785 51.0228 33.28 51.0228H49.8575C49.859 51.0228 49.859 51.0228 49.8605 51.0228C49.8635 51.0228 49.8679 51.0228 49.8709 51.0228C49.9036 51.0228 49.9364 51.0198 49.9676 51.0168C49.9795 51.0153 49.9915 51.0138 50.0019 51.0109C50.0287 51.0064 50.0555 51.0004 50.0822 50.9945C50.0912 50.9915 50.1016 50.99 50.1105 50.987C50.1462 50.9766 50.1805 50.9647 50.2147 50.9498C50.2207 50.9468 50.2251 50.9439 50.2311 50.9424C50.2623 50.929 50.2906 50.9126 50.3189 50.8948C50.3234 50.8918 50.3278 50.8903 50.3323 50.8873C50.3368 50.8843 50.3397 50.8828 50.3427 50.8799C50.3561 50.8709 50.371 50.8605 50.3844 50.8516C50.3948 50.8442 50.4067 50.8352 50.4171 50.8278C50.4275 50.8189 50.438 50.8099 50.4484 50.801C50.4603 50.7906 50.4722 50.7802 50.4841 50.7682C50.4915 50.7608 50.499 50.7519 50.5079 50.7444C50.5198 50.731 50.5332 50.7176 50.5436 50.7042C50.5511 50.6968 50.557 50.6879 50.563 50.6789C50.5734 50.6641 50.5853 50.6507 50.5957 50.6358C50.6032 50.6254 50.6091 50.6149 50.6151 50.6045C50.624 50.5911 50.6329 50.5777 50.6404 50.5628C50.6478 50.5495 50.6538 50.5361 50.6612 50.5212C50.6672 50.5093 50.6731 50.4989 50.6776 50.4869C50.685 50.4706 50.691 50.4542 50.6969 50.4378C50.6999 50.4274 50.7044 50.417 50.7089 50.4066C50.7148 50.3902 50.7193 50.3723 50.7237 50.356C50.7267 50.3455 50.7297 50.3336 50.7327 50.3232C50.7356 50.3083 50.7386 50.292 50.7416 50.2771C50.7446 50.2637 50.7461 50.2488 50.7475 50.2354C50.749 50.222 50.7505 50.2086 50.7505 50.1967C50.752 50.1789 50.7535 50.1625 50.7535 50.1446C50.7535 50.1402 50.7535 50.1357 50.7535 50.1312V23.6724C50.7475 23.668 50.7475 23.665 50.7475 23.6605ZM48.2411 24.5655L41.5643 35.2192L34.8875 24.5655H48.2411ZM34.1686 26.7802L40.512 36.9011L34.1686 47.022V26.7802ZM34.889 49.2352L41.5658 38.5815L48.2426 49.2352H34.889ZM48.9615 47.022L42.6181 36.9011L48.9615 26.7802V47.022Z" fill="black"/>
</svg>
